<?xml version="1.0" encoding="utf-8"?>
<!-- Generator: Adobe Illustrator 16.0.0, SVG Export Plug-In . SVG Version: 6.00 Build 0)  -->
<!DOCTYPE svg PUBLIC "-//W3C//DTD SVG 1.1//EN" "http://www.w3.org/Graphics/SVG/1.1/DTD/svg11.dtd">
<svg version="1.1" id="Capa_1" xmlns="http://www.w3.org/2000/svg" xmlns:xlink="http://www.w3.org/1999/xlink" x="0px" y="0px"
	 width="40px" height="40px" viewBox="0 0 512 512" enable-background="new 0 0 512 512" xml:space="preserve">
<g>
	<path fill="#00A680" d="M256,0C114.62,0,0,114.62,0,256s114.62,256,256,256s256-114.62,256-256S397.38,0,256,0z"/>
	<g>
		<path fill="#FFFFFF" d="M403.163,355.398c-15.63,9.932-32.909,14.64-51.368,14.739c-7.752,0.053-15.478-0.989-23.047-2.954
			c-18.447-4.787-34.281-13.995-47.323-27.918c-1.729-1.833-3.347-3.734-5.17-5.803c-6.894,10.271-13.677,20.386-20.632,30.751
			c-6.914-10.34-13.619-20.354-20.286-30.312c-0.461,0.236-0.592,0.268-0.687,0.341c-0.152,0.131-0.288,0.293-0.398,0.43
			c-15.776,18.625-35.623,30.033-59.785,33.862c-13.451,2.127-26.76,1.367-39.829-2.242c-18.505-5.086-34.24-14.844-46.947-29.258
			c-12.419-14.08-20.145-30.442-23.036-49.043c-3.316-17.348,0.717-34.087,1.729-38.142c2.928-11.795,8.019-22.638,15.017-32.605
			c0.492-0.707,0.665-1.964,0.43-2.802c-2.854-10.465-7.763-19.988-13.524-29.107c-1.461-2.31-3.21-4.452-4.829-6.678
			c0-0.256,0-0.513,0-0.775c0.319,0.042,0.644,0.104,0.964,0.104c19.364,0.011,38.739,0.011,58.108-0.021
			c0.849,0,1.781-0.346,2.509-0.807c13.608-8.736,28.111-15.65,43.343-21.035c10.989-3.876,22.198-6.903,33.648-9.124
			c11.078-2.137,22.208-3.651,33.464-4.39c27.437-2.116,49.372,0.786,63.96,2.823c10.753,1.514,21.286,4.227,31.693,7.417
			c18.17,5.594,35.304,13.372,51.426,23.45c1.115,0.697,2.619,1.137,3.938,1.137c18.925,0.084,37.854,0.052,56.778,0.073
			c1.524,0,3.049,0.163,4.562,0.246c0,0.367,0.053,0.524-0.011,0.613c-0.88,1.352-1.78,2.703-2.661,4.06
			c-6.416,9.842-11.905,20.155-15.152,31.537c-0.346,1.215-0.43,2.242,0.397,3.446c16.861,24.204,22.225,50.771,15.185,79.417
			C439.445,321.944,425.052,341.523,403.163,355.398z"/>
		<g>
			<g>
				<path fill="#00A680" d="M159.817,196.493c-41.379-0.367-77.452,34.167-76.734,78.154c0.675,41.023,34.486,75.803,77.593,75.426
					c42.149-0.356,76.033-34.785,76.111-76.473C236.851,230.795,202.558,196.493,159.817,196.493z"/>
				<path fill="#FFFFFF" d="M161.054,320.033c-27.724,1.268-50.095-20.832-50.048-47.665c0.052-27.189,22.455-47.989,47.795-47.528
					c26.31-0.031,47.665,21.208,47.591,47.508C206.324,298.967,185.341,318.928,161.054,320.033z"/>
				<path fill="#00A680" d="M158.372,241.308c-16.808,0.032-30.893,14.221-30.856,31.093c0.042,17.074,14.116,31.117,31.233,31.159
					c17.012,0.042,31.107-14.126,31.071-31.243C189.768,255.036,175.803,241.276,158.372,241.308z"/>
				<path fill="#FFFFFF" d="M158.765,288.35c-9.025,0.01-15.981-6.957-15.981-16.033c0-8.91,6.946-15.824,15.939-15.834
					c8.847-0.011,15.97,7.061,16.012,15.897C174.761,281.137,167.58,288.317,158.765,288.35z"/>
			</g>
			<g>
				<path fill="#00A680" d="M350.423,196.786c-42.003,0.859-74.875,34.711-75.253,76.588c0,42.536,34.518,77.29,76.902,77.127
					c42.547-0.151,76.902-33.925,76.871-76.933C428.923,229.24,392.959,195.917,350.423,196.786z"/>
				<path fill="#FFFFFF" d="M354.273,321.031c-27.608,1.063-49.702-20.951-49.691-47.633c0.011-26.995,22.271-48.031,47.728-47.57
					c26.33-0.052,47.658,21.156,47.658,47.46C399.963,299.688,379.001,320.089,354.273,321.031z"/>
				<path fill="#00A680" d="M351.978,242.319c-16.808,0.032-30.893,14.222-30.855,31.093c0.042,17.074,14.115,31.117,31.233,31.159
					c17.013,0.042,31.107-14.126,31.071-31.243C383.374,256.047,369.409,242.288,351.978,242.319z M352.371,289.361
					c-9.024,0.01-15.981-6.957-15.981-16.033c0-8.91,6.946-15.824,15.939-15.834c8.847-0.012,15.971,7.061,16.012,15.896
					C368.367,282.148,361.187,289.329,352.371,289.361z"/>
			</g>
			<path fill="#00A680" d="M286.678,202.385c17.013-15.609,37.278-23.795,60.268-25.535c-27.284-12.12-56.051-17.279-85.666-17.851
				c-33.647-0.654-66.384,4.306-97.649,17.421c23.376,1.419,43.909,9.575,61.257,25.341c17.311,15.755,27.457,35.387,31.139,58.486
				C259.818,237.421,269.687,217.963,286.678,202.385z"/>
		</g>
	</g>
</g>
</svg>
