<svg height="20px" viewBox="0 -32 512 511" width="20px" xmlns="http://www.w3.org/2000/svg"><path fill="#6c757d" d="m388.617188 110.921875 40.035156-40.03125-70.390625-70.390625-40.035157 40.03125-19.300781-19.300781-98.101562 98.089843 19.308593 19.308594-220.132812 220.132813 87.753906 87.753906 35.640625-35.640625 8.859375-43.597656 157.621094-157.625c12.316406 16.078125 19.6875 35.511718 21.035156 55.929687 1.519532 23.125-.621094 43.519531-.640625 43.71875l-1.296875 11.898438 11.324219 3.898437c12.730469 4.378906 25.757813 6.558594 38.964844 6.558594 30.511719 0 61.945312-11.605469 92.621093-34.460938 31.933594-23.785156 51.878907-51.378906 52.707032-52.539062l7.410156-10.347656zm-2.386719-40.03125-18.824219 18.824219-27.96875-27.972656 18.820312-18.824219zm-281.570313 281.5625-8.859375 43.597656-8.042969 8.046875-45.339843-45.339844 198.925781-198.921874.003906.003906 27.960938 27.964844zm197.453125-174.257813-58.871093-58.875 55.679687-55.679687 134.109375 134.121094c-16.445312 16.9375-53.957031 49.253906-95.742188 42.90625 0 0-.003906 0-.003906-.003907-5.75-23.515624-17.847656-45.148437-35.171875-62.46875zm38.910157 121.566407c.382812-7.378907.628906-17.386719.199218-28.484375v-.003906c2.417969.167968 4.816406.261718 7.191406.261718 48.117188 0 87.460938-33.535156 105.878907-52.523437l18.003906 18.015625c-19.324219 22.574218-71.734375 75.203125-131.273437 62.734375zm0 0"/></svg>