<svg height="60px" viewBox="0 0 512 512.00078" width="60px" xmlns="http://www.w3.org/2000/svg" fill="#f2e41f"><path d="m123.34375 323.535156c-14.6875 14.6875 7.722656 35.90625 21.789062 21.789063l4.789063-4.785157c14.398437-14.378906-7.371094-36.207031-21.789063-21.789062zm0 0"/><path d="m95.421875 394.769531-4.789063 4.777344c-14.667968 14.691406 7.703126 35.894531 21.800782 21.796875l4.785156-4.785156c14.402344-14.398438-7.375-36.210938-21.796875-21.789063zm0 0"/><path d="m147.113281 369.941406c-14.417969 14.417969 7.484375 36.140625 21.792969 21.789063l4.785156-4.777344c14.398438-14.398437-7.371094-36.21875-21.789062-21.800781zm0 0"/><path d="m394.035156 242.8125h-86.40625c-20.351562 0-20.390625 30.820312 0 30.820312h86.40625c13.859375 0 25.128906 11.265626 25.128906 25.125 0 13.859376-11.269531 25.136719-25.128906 25.136719h-22.929687c-20.207031 0-20.632813 30.820313 0 30.820313h22.929687c30.851563 0 55.945313-25.105469 55.945313-55.957032 0-30.847656-25.09375-55.945312-55.945313-55.945312zm0 0"/><path d="m188.09375 140.875v-22.929688c0-13.859374 11.269531-25.128906 25.128906-25.128906 13.855469 0 25.125 11.269532 25.125 25.128906v86.40625c0 20.351563 30.820313 20.386719 30.820313 0v-86.40625c0-30.851562-25.097657-55.945312-55.945313-55.945312-30.851562 0-55.949218 25.09375-55.949218 55.945312v22.929688c0 20.734375 30.820312 19.96875 30.820312 0zm0 0"/><path d="m476.515625 99.796875-33.550781-8.988281 32.234375-32.234375c14.398437-14.394531-7.375-36.210938-21.789063-21.792969l-32.234375 32.234375-8.992187-33.550781c-5.269532-19.667969-35.042969-11.71875-29.769532 7.976562l8.992188 33.550782-33.550781-8.988282c-19.664063-5.273437-27.664063 24.492188-7.976563 29.765625l33.550782 8.992188-76.246094 76.246093c-14.671875 14.671876 7.6875 35.898438 21.789062 21.792969l76.25-76.25 8.988282 33.550781c5.304687 19.792969 35.0625 11.777344 29.769531-7.976562l-8.988281-33.550781 33.550781 8.992187c19.925781 5.34375 27.449219-24.550781 7.972656-29.769531zm0 0"/><path d="m321.367188 136.132812 5.648437-5.644531c14.398437-14.398437-7.375-36.207031-21.789063-21.792969l-5.648437 5.644532c-14.648437 14.648437 7.671875 35.910156 21.789063 21.792968zm0 0"/><path d="m397.640625 212.40625 5.644531-5.648438c14.402344-14.394531-7.375-36.203124-21.789062-21.792968l-5.648438 5.644531c-14.648437 14.648437 7.675782 35.910156 21.792969 21.796875zm0 0"/><path d="m335.832031 38.105469 11.582031-11.585938c14.398438-14.394531-7.371093-36.207031-21.789062-21.789062l-11.582031 11.582031c-14.671875 14.667969 7.6875 35.898438 21.789062 21.792969zm0 0"/><path d="m485.460938 164.566406-11.582032 11.582032c-14.671875 14.671874 7.6875 35.898437 21.792969 21.792968l11.582031-11.582031c14.394532-14.398437-7.378906-36.210937-21.792968-21.792969zm0 0"/><path d="m158.640625 190.933594c-7.632813-7.632813-20.546875-5.222656-24.953125 4.589844-1.285156 2.867187-121.152344 269.890624-132.292969 294.710937-5.785156 12.882813 7.511719 26.171875 20.371094 20.363281 20.636719-9.269531 283.394531-127.246094 294.6875-132.316406 9.835937-4.414062 12.207031-17.328125 4.582031-24.953125zm-112.539063 274.957031 83.457032-185.921875 102.460937 102.453125zm216-96.980469-119.035156-119.019531 9.585938-21.359375 130.796875 130.796875zm0 0"/></svg>