<svg height="60px" viewBox="-8 0 512 512.00101" width="60px" xmlns="http://www.w3.org/2000/svg"><path fill="#f2e41f" d="m487.835938 83.5-165.210938-81.917969c-2.09375-1.019531-4.410156-1.582031-6.742188-1.582031h-129.164062c-2.246094 0-4.515625.511719-6.539062 1.480469l-171.542969 81.921875c-5.382813 2.570312-8.757813 8.054687-8.63281275 14.015625l8.44531275 399.726562c.175781 8.253907 6.917969 14.855469 15.171875 14.855469h224.476562.078125 224.472657c8.257812 0 14.996093-6.601562 15.171874-14.855469l8.449219-399.726562c.121094-5.878907-3.164062-11.304688-8.433593-13.917969zm-110.300782 162.125 27.882813 36.53125-112.898438 136.960938v-1.105469l107.953125-301.046875 14.882813 61.703125-37.730469 48.421875c-4.238281 5.4375-4.273438 13.054687-.089844 18.535156zm-258.890625-18.535156-37.730469-48.421875 14.882813-61.703125 107.953125 301.046875v1.105469l-112.898438-136.964844 27.882813-36.527344c4.183594-5.480469 4.148437-13.097656-.089844-18.535156zm61.710938-192.054688 16.59375 30.007813-21.125-10.71875c-25.621094-13-33.460938 42.613281-33.640625 55.921875-.179688 13.347656 7.3125 71.78125 33.640625 58.417968l27.925781-14.171874v173.59375l-93.140625-259.742188zm67.777343 416.824219-14.03125-39.128906v-256.167969c9.074219 2.832031 18.992188 2.832031 28.0625 0v256.171875zm-47.199218-329.976563-24.550782 12.460938c-4.941406-15.003906-4.941406-30.695312-.003906-45.699219l24.554688 12.457031zm94.402344-20.777343 24.550781-12.460938c4.941406 15.003907 4.941406 30.695313.003906 45.699219l-24.554687-12.460938zm-47.203126 27.234375c-21.734374 0-21.675781-33.691406 0-33.691406 21.664063 0 21.765626 33.691406 0 33.691406zm44.386719 199.75v-173.597656l27.925781 14.171874c26.332032 13.367188 33.820313-45.082031 33.640626-58.417968-.179688-13.316406-8.023438-68.917969-33.640626-55.921875l-12.320312 6.253906 14.019531-25.355469 64.011719 31.742188zm-2.371093-297.738282-21.390626 38.695313c-11.183593-5.457031-24.34375-6.226563-36.09375-2.136719l-20.210937-36.558594zm-259.589844 76.21875 41.273437-19.710937-22.140625 91.804687c-1.085937 4.496094-.0625 9.242188 2.78125 12.890626l35.03125 44.957031-28.085937 36.796875c-4.28125 5.605468-4.132813 13.417968.351562 18.863281l156.1875 189.476563h-177.476562zm427.230468 375.078126h-177.476562l156.1875-189.480469c4.484375-5.441407 4.632812-13.253907.351562-18.859375l-28.085937-36.796875 35.03125-44.960938c2.84375-3.644531 3.867187-8.390625 2.785156-12.886719l-22.394531-92.84375 41.53125 20.59375zm0 0"/></svg>