<svg height="60px" viewBox="0 -72 512.00101 512" width="60px" xmlns="http://www.w3.org/2000/svg"><path fill="#fcee21" d="m511.320312 
118.664062c-.664062-4.035156-2.949218-7.625-6.328124-9.9375-37.386719-25.585937-73.90625-61.390624-114.347657-102.136718
-5.777343-5.816406-15.15625-5.917969-21.058593-.226563l-63.226563 60.972657c-2.890625 2.789062-4.542969
6.617187-4.585937 10.632812-.042969 4.015625 1.523437 7.882812 4.351562 10.730469 3.148438 3.171875 6.214844 6.277343
9.199219 9.324219l-60.59375 58.433593-57.214844-58.664062c3.078125-2.957031 6.242187-5.972657 9.488281-9.046875
2.914063-2.761719 4.601563-6.578125 4.679688-10.589844.078125-4.015625-1.453125-7.894531-4.257813-10.769531l-61.300781-6
2.859375c-5.722656-5.871094-15.101562-6.054688-21.054688-.414063-41.695312 39.5-79.3125 74.1875-117.476562
98.628907-3.441406 2.207031-5.835938 5.71875-6.628906 9.730468-3.671875 18.617188 3.191406 39.953125 19.324218 60.074219
20.710938 25.824219 51.59375 42.941406 78.679688 43.597656.121094.003907.246094.007813.367188.007813 6.476562 0
12.242187-4.167969 14.257812-10.351563 5.230469-16.039062 14.503906-31.753906 28.0625-48.859375l54.558594
55.945313-80.347656 77.488281c-4.933594 4.757812-7.695313 11.148438-7.769532 17.984375-.078125 6.84375 2.546875
13.292969 7.382813 18.167969l29.421875 29.640625c4.992187 5.027343 11.613281 7.550781 18.242187 7.550781 16.691407 0
21.652344-11.542969 22.953125-14.164062 8.835938-17.816407 20.605469-33.882813 34.992188-47.753907l31.867187-30.734375
32.410157 33.238282c13.945312 14.300781 25.210937 30.714843 33.484374 48.78125 1.21875 2.664062 6.335938 14.878906
23.308594 14.878906 6.359375 0 12.730469-2.324219 17.667969-7.003906l30.332031-28.734376c4.984375-4.722656
7.800782-11.09375 7.9375-17.933593.136719-6.839844-2.425781-13.308594-7.210937-18.214844l-79.421875-81.4375
57.855468-55.792969c13.015626 17.5 21.792969 33.484375 26.519532 49.671875 1.859375 6.367188 7.679687 10.753907 14.3125
10.796875h.398437c27 0 58.199219-16.136718 79.59375-41.203125 16.746094-19.621093 24.265625-40.730469
21.175781-59.449219zm-421.828124 66.074219c-15.964844-3.890625-33.347657-15.433593-45.796876-30.957031-8.320312-10.375-1
3.160156-21.113281-13.644531-29.882812 34.742188-23.207032 68.480469-53.554688 104.90625-87.855469l40.40625
41.433593c-43.691406 42.070313-71.613281 73.761719-85.871093 107.261719zm71.867187-50.5625c4.605469-4.957031
9.519531-10.066406 14.757813-15.359375l57.019531 58.464844-15.324219 14.78125zm204.773437 179.484375-22.621093
21.4375c-9.421875-19.046875-21.738281-36.429687-36.664063-51.738281l-32.296875-33.117187
15.324219-14.777344zm-165.867187-33.457031c-15.402344 14.851563-28.25 31.855469-38.261719 50.613281l-21.9375-22.101562
196-189.023438c5.066406 5.449219 9.816406 10.699219 14.261719 15.792969zm267.0625-121.566406c-12.925781
15.144531-30.664063 26.160156-46.742187
29.570312-13.214844-33.917969-40.132813-66.433593-82.488282-109.800781l41.683594-40.203125c35.339844 35.382813 68.113281
66.734375 102.117188 90.980469-.761719 8.75-5.933594 19.335937-14.570313 29.453125zm0 0"/></svg>
