<svg height="20px" viewBox="-112 0 480 480" width="20px" fill="#6c757d" xmlns="http://www.w3.org/2000/svg"><path d="m14.398438 476.800781 113.601562-151.464843 113.601562 151.464843c1.507813 2.011719 3.878907 3.199219 6.398438 3.199219.859375-.003906 1.710938-.140625 2.527344-.40625 3.269531-1.089844 5.472656-4.148438 5.472656-7.59375v-464c0-4.417969-3.582031-8-8-8h-240c-4.417969 0-8 3.582031-8 8v464c0 3.445312 2.203125 6.5 5.46875 7.589844 3.269531 1.089844 6.863281-.035156 8.929688-2.789063zm1.601562-460.800781h224v432l-105.601562-140.800781c-1.507813-2.011719-3.878907-3.199219-6.398438-3.199219s-4.890625 1.1875-6.398438 3.199219l-105.601562 140.800781zm0 0"/><path d="m168.632812 237.640625c2.679688 1.480469 5.972657 1.296875 8.476563-.46875s3.777344-4.804687 3.28125-7.828125l-7.847656-48.113281 33.183593-34.03125c2.097657-2.144531 2.8125-5.285157 1.863282-8.128907-.953125-2.84375-3.417969-4.914062-6.382813-5.367187l-45.527343-6.949219-20.441407-43.539062c-1.316406-2.804688-4.136719-4.59375-7.238281-4.59375s-5.921875 1.789062-7.238281 4.59375l-20.441407 43.5625-45.527343 6.949218c-2.964844.453126-5.429688 2.527344-6.382813 5.371094-.949218 2.84375-.234375 5.980469 1.863282 8.125l33.183593 34.007813-7.847656 48.113281c-.496094 3.023438.777344 6.0625 3.28125 7.828125s5.796875 1.949219 8.476563.46875l40.632812-22.441406zm-74.585937-21.976563 5.847656-35.839843c.410157-2.503907-.394531-5.054688-2.167969-6.871094l-25.125-25.753906 34.398438-5.246094c2.636719-.40625 4.898438-2.097656 6.03125-4.511719l15.007812-32 15.007813 32c1.132813 2.414063 3.394531 4.105469 6.03125 4.511719l34.363281 5.246094-25.128906 25.761719c-1.773438 1.816406-2.578125 4.367187-2.167969 6.871093l5.847657 35.839844-30.082032-16.632813c-2.40625-1.332031-5.332031-1.332031-7.742187 0zm0 0"/></svg>